<svg width="110" height="110" viewBox="0 0 110 110" fill="none" xmlns="http://www.w3.org/2000/svg">
<path d="M110 0H0V110H110V0Z" fill="white"/>
<path d="M9.47635 6.875H6.875V9.47635H9.47635V6.875Z" fill="black"/>
<path d="M12.0777 6.875H9.47635V9.47635H12.0777V6.875Z" fill="black"/>
<path d="M14.6791 6.875H12.0777V9.47635H14.6791V6.875Z" fill="black"/>
<path d="M17.2804 6.875H14.6791V9.47635H17.2804V6.875Z" fill="black"/>
<path d="M19.8818 6.875H17.2804V9.47635H19.8818V6.875Z" fill="black"/>
<path d="M22.4831 6.875H19.8818V9.47635H22.4831V6.875Z" fill="black"/>
<path d="M25.0845 6.875H22.4831V9.47635H25.0845V6.875Z" fill="black"/>
<path d="M30.2872 6.875H27.6858V9.47635H30.2872V6.875Z" fill="black"/>
<path d="M32.8885 6.875H30.2872V9.47635H32.8885V6.875Z" fill="black"/>
<path d="M35.4899 6.875H32.8885V9.47635H35.4899V6.875Z" fill="black"/>
<path d="M40.6926 6.875H38.0912V9.47635H40.6926V6.875Z" fill="black"/>
<path d="M43.2939 6.875H40.6926V9.47635H43.2939V6.875Z" fill="black"/>
<path d="M45.8953 6.875H43.2939V9.47635H45.8953V6.875Z" fill="black"/>
<path d="M48.4966 6.875H45.8953V9.47635H48.4966V6.875Z" fill="black"/>
<path d="M56.3007 6.875H53.6993V9.47635H56.3007V6.875Z" fill="black"/>
<path d="M58.902 6.875H56.3007V9.47635H58.902V6.875Z" fill="black"/>
<path d="M61.5034 6.875H58.902V9.47635H61.5034V6.875Z" fill="black"/>
<path d="M66.7061 6.875H64.1047V9.47635H66.7061V6.875Z" fill="black"/>
<path d="M74.5101 6.875H71.9088V9.47635H74.5101V6.875Z" fill="black"/>
<path d="M77.1115 6.875H74.5101V9.47635H77.1115V6.875Z" fill="black"/>
<path d="M79.7128 6.875H77.1115V9.47635H79.7128V6.875Z" fill="black"/>
<path d="M82.3142 6.875H79.7128V9.47635H82.3142V6.875Z" fill="black"/>
<path d="M87.5169 6.875H84.9155V9.47635H87.5169V6.875Z" fill="black"/>
<path d="M90.1182 6.875H87.5169V9.47635H90.1182V6.875Z" fill="black"/>
<path d="M92.7196 6.875H90.1182V9.47635H92.7196V6.875Z" fill="black"/>
<path d="M95.3209 6.875H92.7196V9.47635H95.3209V6.875Z" fill="black"/>
<path d="M97.9223 6.875H95.3209V9.47635H97.9223V6.875Z" fill="black"/>
<path d="M100.524 6.875H97.9223V9.47635H100.524V6.875Z" fill="black"/>
<path d="M103.125 6.875H100.524V9.47635H103.125V6.875Z" fill="black"/>
<path d="M9.47635 9.47635H6.875V12.0777H9.47635V9.47635Z" fill="black"/>
<path d="M25.0845 9.47635H22.4831V12.0777H25.0845V9.47635Z" fill="black"/>
<path d="M45.8953 9.47635H43.2939V12.0777H45.8953V9.47635Z" fill="black"/>
<path d="M48.4966 9.47635H45.8953V12.0777H48.4966V9.47635Z" fill="black"/>
<path d="M51.098 9.47635H48.4966V12.0777H51.098V9.47635Z" fill="black"/>
<path d="M66.7061 9.47635H64.1047V12.0777H66.7061V9.47635Z" fill="black"/>
<path d="M69.3074 9.47635H66.7061V12.0777H69.3074V9.47635Z" fill="black"/>
<path d="M71.9088 9.47635H69.3074V12.0777H71.9088V9.47635Z" fill="black"/>
<path d="M74.5101 9.47635H71.9088V12.0777H74.5101V9.47635Z" fill="black"/>
<path d="M87.5169 9.47635H84.9155V12.0777H87.5169V9.47635Z" fill="black"/>
<path d="M103.125 9.47635H100.524V12.0777H103.125V9.47635Z" fill="black"/>
<path d="M9.47635 12.0777H6.875V14.6791H9.47635V12.0777Z" fill="black"/>
<path d="M14.6791 12.0777H12.0777V14.6791H14.6791V12.0777Z" fill="black"/>
<path d="M17.2804 12.0777H14.6791V14.6791H17.2804V12.0777Z" fill="black"/>
<path d="M19.8818 12.0777H17.2804V14.6791H19.8818V12.0777Z" fill="black"/>
<path d="M25.0845 12.0777H22.4831V14.6791H25.0845V12.0777Z" fill="black"/>
<path d="M38.0912 12.0777H35.4899V14.6791H38.0912V12.0777Z" fill="black"/>
<path d="M40.6926 12.0777H38.0912V14.6791H40.6926V12.0777Z" fill="black"/>
<path d="M43.2939 12.0777H40.6926V14.6791H43.2939V12.0777Z" fill="black"/>
<path d="M51.098 12.0777H48.4966V14.6791H51.098V12.0777Z" fill="black"/>
<path d="M56.3007 12.0777H53.6993V14.6791H56.3007V12.0777Z" fill="black"/>
<path d="M61.5034 12.0777H58.902V14.6791H61.5034V12.0777Z" fill="black"/>
<path d="M66.7061 12.0777H64.1047V14.6791H66.7061V12.0777Z" fill="black"/>
<path d="M77.1115 12.0777H74.5101V14.6791H77.1115V12.0777Z" fill="black"/>
<path d="M79.7128 12.0777H77.1115V14.6791H79.7128V12.0777Z" fill="black"/>
<path d="M87.5169 12.0777H84.9155V14.6791H87.5169V12.0777Z" fill="black"/>
<path d="M92.7196 12.0777H90.1182V14.6791H92.7196V12.0777Z" fill="black"/>
<path d="M95.3209 12.0777H92.7196V14.6791H95.3209V12.0777Z" fill="black"/>
<path d="M97.9223 12.0777H95.3209V14.6791H97.9223V12.0777Z" fill="black"/>
<path d="M103.125 12.0777H100.524V14.6791H103.125V12.0777Z" fill="black"/>
<path d="M9.47635 14.6791H6.875V17.2804H9.47635V14.6791Z" fill="black"/>
<path d="M14.6791 14.6791H12.0777V17.2804H14.6791V14.6791Z" fill="black"/>
<path d="M17.2804 14.6791H14.6791V17.2804H17.2804V14.6791Z" fill="black"/>
<path d="M19.8818 14.6791H17.2804V17.2804H19.8818V14.6791Z" fill="black"/>
<path d="M25.0845 14.6791H22.4831V17.2804H25.0845V14.6791Z" fill="black"/>
<path d="M35.4899 14.6791H32.8885V17.2804H35.4899V14.6791Z" fill="black"/>
<path d="M38.0912 14.6791H35.4899V17.2804H38.0912V14.6791Z" fill="black"/>
<path d="M40.6926 14.6791H38.0912V17.2804H40.6926V14.6791Z" fill="black"/>
<path d="M45.8953 14.6791H43.2939V17.2804H45.8953V14.6791Z" fill="black"/>
<path d="M48.4966 14.6791H45.8953V17.2804H48.4966V14.6791Z" fill="black"/>
<path d="M51.098 14.6791H48.4966V17.2804H51.098V14.6791Z" fill="black"/>
<path d="M69.3074 14.6791H66.7061V17.2804H69.3074V14.6791Z" fill="black"/>
<path d="M77.1115 14.6791H74.5101V17.2804H77.1115V14.6791Z" fill="black"/>
<path d="M79.7128 14.6791H77.1115V17.2804H79.7128V14.6791Z" fill="black"/>
<path d="M82.3142 14.6791H79.7128V17.2804H82.3142V14.6791Z" fill="black"/>
<path d="M87.5169 14.6791H84.9155V17.2804H87.5169V14.6791Z" fill="black"/>
<path d="M92.7196 14.6791H90.1182V17.2804H92.7196V14.6791Z" fill="black"/>
<path d="M95.3209 14.6791H92.7196V17.2804H95.3209V14.6791Z" fill="black"/>
<path d="M97.9223 14.6791H95.3209V17.2804H97.9223V14.6791Z" fill="black"/>
<path d="M103.125 14.6791H100.524V17.2804H103.125V14.6791Z" fill="black"/>
<path d="M9.47635 17.2804H6.875V19.8818H9.47635V17.2804Z" fill="black"/>
<path d="M14.6791 17.2804H12.0777V19.8818H14.6791V17.2804Z" fill="black"/>
<path d="M17.2804 17.2804H14.6791V19.8818H17.2804V17.2804Z" fill="black"/>
<path d="M19.8818 17.2804H17.2804V19.8818H19.8818V17.2804Z" fill="black"/>
<path d="M25.0845 17.2804H22.4831V19.8818H25.0845V17.2804Z" fill="black"/>
<path d="M35.4899 17.2804H32.8885V19.8818H35.4899V17.2804Z" fill="black"/>
<path d="M38.0912 17.2804H35.4899V19.8818H38.0912V17.2804Z" fill="black"/>
<path d="M43.2939 17.2804H40.6926L40.6926 19.8818H43.2939V17.2804Z" fill="black"/>
<path d="M51.098 17.2804H48.4966V19.8818H51.098V17.2804Z" fill="black"/>
<path d="M53.6993 17.2804H51.098V19.8818H53.6993V17.2804Z" fill="black"/>
<path d="M56.3007 17.2804H53.6993V19.8818H56.3007V17.2804Z" fill="black"/>
<path d="M64.1047 17.2804H61.5034V19.8818H64.1047V17.2804Z" fill="black"/>
<path d="M66.7061 17.2804H64.1047V19.8818H66.7061V17.2804Z" fill="black"/>
<path d="M69.3074 17.2804H66.7061V19.8818H69.3074V17.2804Z" fill="black"/>
<path d="M71.9088 17.2804H69.3074V19.8818H71.9088V17.2804Z" fill="black"/>
<path d="M87.5169 17.2804H84.9155V19.8818H87.5169V17.2804Z" fill="black"/>
<path d="M92.7196 17.2804H90.1182V19.8818H92.7196V17.2804Z" fill="black"/>
<path d="M95.3209 17.2804H92.7196V19.8818H95.3209V17.2804Z" fill="black"/>
<path d="M97.9223 17.2804H95.3209V19.8818H97.9223V17.2804Z" fill="black"/>
<path d="M103.125 17.2804H100.524V19.8818H103.125V17.2804Z" fill="black"/>
<path d="M9.47635 19.8818H6.875V22.4831H9.47635V19.8818Z" fill="black"/>
<path d="M25.0845 19.8818H22.4831V22.4831H25.0845V19.8818Z" fill="black"/>
<path d="M35.4899 19.8818H32.8885V22.4831H35.4899V19.8818Z" fill="black"/>
<path d="M45.8953 19.8818H43.2939V22.4831H45.8953V19.8818Z" fill="black"/>
<path d="M51.098 19.8818H48.4966V22.4831H51.098V19.8818Z" fill="black"/>
<path d="M61.5034 19.8818H58.902V22.4831H61.5034V19.8818Z" fill="black"/>
<path d="M64.1047 19.8818H61.5034V22.4831H64.1047V19.8818Z" fill="black"/>
<path d="M66.7061 19.8818H64.1047V22.4831H66.7061V19.8818Z" fill="black"/>
<path d="M74.5101 19.8818H71.9088V22.4831H74.5101V19.8818Z" fill="black"/>
<path d="M77.1115 19.8818H74.5101V22.4831H77.1115V19.8818Z" fill="black"/>
<path d="M79.7128 19.8818H77.1115V22.4831H79.7128V19.8818Z" fill="black"/>
<path d="M82.3142 19.8818H79.7128V22.4831H82.3142V19.8818Z" fill="black"/>
<path d="M87.5169 19.8818H84.9155V22.4831H87.5169V19.8818Z" fill="black"/>
<path d="M103.125 19.8818H100.524V22.4831H103.125V19.8818Z" fill="black"/>
<path d="M9.47635 22.4831H6.875V25.0845H9.47635V22.4831Z" fill="black"/>
<path d="M12.0777 22.4831H9.47635V25.0845H12.0777V22.4831Z" fill="black"/>
<path d="M14.6791 22.4831H12.0777V25.0845H14.6791V22.4831Z" fill="black"/>
<path d="M17.2804 22.4831H14.6791V25.0845H17.2804V22.4831Z" fill="black"/>
<path d="M19.8818 22.4831H17.2804V25.0845H19.8818V22.4831Z" fill="black"/>
<path d="M22.4831 22.4831H19.8818V25.0845H22.4831V22.4831Z" fill="black"/>
<path d="M25.0845 22.4831H22.4831V25.0845H25.0845V22.4831Z" fill="black"/>
<path d="M30.2872 22.4831H27.6858V25.0845H30.2872V22.4831Z" fill="black"/>
<path d="M35.4899 22.4831H32.8885V25.0845H35.4899V22.4831Z" fill="black"/>
<path d="M40.6926 22.4831H38.0912V25.0845H40.6926V22.4831Z" fill="black"/>
<path d="M45.8953 22.4831H43.2939V25.0845H45.8953V22.4831Z" fill="black"/>
<path d="M51.098 22.4831H48.4966V25.0845H51.098V22.4831Z" fill="black"/>
<path d="M56.3007 22.4831H53.6993V25.0845H56.3007V22.4831Z" fill="black"/>
<path d="M61.5034 22.4831H58.902V25.0845H61.5034V22.4831Z" fill="black"/>
<path d="M66.7061 22.4831H64.1047V25.0845H66.7061V22.4831Z" fill="black"/>
<path d="M71.9088 22.4831H69.3074V25.0845H71.9088V22.4831Z" fill="black"/>
<path d="M77.1115 22.4831H74.5101V25.0845H77.1115V22.4831Z" fill="black"/>
<path d="M82.3142 22.4831H79.7128V25.0845H82.3142V22.4831Z" fill="black"/>
<path d="M87.5169 22.4831H84.9155V25.0845H87.5169V22.4831Z" fill="black"/>
<path d="M90.1182 22.4831H87.5169V25.0845H90.1182V22.4831Z" fill="black"/>
<path d="M92.7196 22.4831H90.1182V25.0845H92.7196V22.4831Z" fill="black"/>
<path d="M95.3209 22.4831H92.7196V25.0845H95.3209V22.4831Z" fill="black"/>
<path d="M97.9223 22.4831H95.3209V25.0845H97.9223V22.4831Z" fill="black"/>
<path d="M100.524 22.4831H97.9223V25.0845H100.524V22.4831Z" fill="black"/>
<path d="M103.125 22.4831H100.524V25.0845H103.125V22.4831Z" fill="black"/>
<path d="M32.8885 25.0845H30.2872V27.6858H32.8885V25.0845Z" fill="black"/>
<path d="M35.4899 25.0845H32.8885V27.6858H35.4899V25.0845Z" fill="black"/>
<path d="M48.4966 25.0845H45.8953V27.6858H48.4966V25.0845Z" fill="black"/>
<path d="M53.6993 25.0845H51.098L51.098 27.6858H53.6993L53.6993 25.0845Z" fill="black"/>
<path d="M56.3007 25.0845H53.6993L53.6993 27.6858H56.3007V25.0845Z" fill="black"/>
<path d="M58.902 25.0845H56.3007V27.6858H58.902V25.0845Z" fill="black"/>
<path d="M61.5034 25.0845H58.902V27.6858H61.5034V25.0845Z" fill="black"/>
<path d="M66.7061 25.0845H64.1047V27.6858H66.7061V25.0845Z" fill="black"/>
<path d="M69.3074 25.0845H66.7061V27.6858H69.3074V25.0845Z" fill="black"/>
<path d="M71.9088 25.0845H69.3074V27.6858H71.9088V25.0845Z" fill="black"/>
<path d="M74.5101 25.0845H71.9088V27.6858H74.5101V25.0845Z" fill="black"/>
<path d="M79.7128 25.0845H77.1115V27.6858H79.7128V25.0845Z" fill="black"/>
<path d="M82.3142 25.0845H79.7128V27.6858H82.3142V25.0845Z" fill="black"/>
<path d="M12.0777 27.6858H9.47635V30.2872H12.0777V27.6858Z" fill="black"/>
<path d="M14.6791 27.6858H12.0777V30.2872H14.6791V27.6858Z" fill="black"/>
<path d="M17.2804 27.6858H14.6791V30.2872H17.2804V27.6858Z" fill="black"/>
<path d="M25.0845 27.6858H22.4831V30.2872H25.0845V27.6858Z" fill="black"/>
<path d="M27.6858 27.6858H25.0845V30.2872H27.6858V27.6858Z" fill="black"/>
<path d="M30.2872 27.6858H27.6858V30.2872H30.2872V27.6858Z" fill="black"/>
<path d="M35.4899 27.6858H32.8885V30.2872H35.4899V27.6858Z" fill="black"/>
<path d="M38.0912 27.6858H35.4899V30.2872H38.0912V27.6858Z" fill="black"/>
<path d="M43.2939 27.6858H40.6926V30.2872H43.2939V27.6858Z" fill="black"/>
<path d="M45.8953 27.6858H43.2939V30.2872H45.8953V27.6858Z" fill="black"/>
<path d="M48.4966 27.6858H45.8953V30.2872H48.4966V27.6858Z" fill="black"/>
<path d="M51.098 27.6858H48.4966V30.2872H51.098L51.098 27.6858Z" fill="black"/>
<path d="M61.5034 27.6858H58.902V30.2872H61.5034V27.6858Z" fill="black"/>
<path d="M66.7061 27.6858H64.1047V30.2872H66.7061V27.6858Z" fill="black"/>
<path d="M69.3074 27.6858H66.7061V30.2872H69.3074V27.6858Z" fill="black"/>
<path d="M77.1115 27.6858H74.5101V30.2872H77.1115V27.6858Z" fill="black"/>
<path d="M84.9155 27.6858H82.3142V30.2872H84.9155V27.6858Z" fill="black"/>
<path d="M103.125 27.6858H100.524V30.2872H103.125V27.6858Z" fill="black"/>
<path d="M12.0777 30.2872H9.47635V32.8885H12.0777V30.2872Z" fill="black"/>
<path d="M14.6791 30.2872H12.0777V32.8885H14.6791V30.2872Z" fill="black"/>
<path d="M17.2804 30.2872H14.6791V32.8885H17.2804V30.2872Z" fill="black"/>
<path d="M22.4831 30.2872H19.8818V32.8885H22.4831V30.2872Z" fill="black"/>
<path d="M27.6858 30.2872H25.0845V32.8885H27.6858V30.2872Z" fill="black"/>
<path d="M30.2872 30.2872H27.6858V32.8885H30.2872V30.2872Z" fill="black"/>
<path d="M38.0912 30.2872H35.4899V32.8885H38.0912V30.2872Z" fill="black"/>
<path d="M40.6926 30.2872H38.0912V32.8885H40.6926L40.6926 30.2872Z" fill="black"/>
<path d="M43.2939 30.2872H40.6926L40.6926 32.8885H43.2939V30.2872Z" fill="black"/>
<path d="M51.098 30.2872H48.4966V32.8885H51.098V30.2872Z" fill="black"/>
<path d="M53.6993 30.2872H51.098V32.8885H53.6993V30.2872Z" fill="black"/>
<path d="M61.5034 30.2872H58.902V32.8885H61.5034V30.2872Z" fill="black"/>
<path d="M64.1047 30.2872H61.5034V32.8885H64.1047V30.2872Z" fill="black"/>
<path d="M66.7061 30.2872H64.1047V32.8885H66.7061V30.2872Z" fill="black"/>
<path d="M69.3074 30.2872H66.7061V32.8885H69.3074V30.2872Z" fill="black"/>
<path d="M74.5101 30.2872H71.9088V32.8885H74.5101V30.2872Z" fill="black"/>
<path d="M77.1115 30.2872H74.5101V32.8885H77.1115V30.2872Z" fill="black"/>
<path d="M97.9223 30.2872H95.3209V32.8885H97.9223V30.2872Z" fill="black"/>
<path d="M100.524 30.2872H97.9223V32.8885H100.524V30.2872Z" fill="black"/>
<path d="M103.125 30.2872H100.524V32.8885H103.125V30.2872Z" fill="black"/>
<path d="M12.0777 32.8885H9.47635V35.4899H12.0777V32.8885Z" fill="black"/>
<path d="M14.6791 32.8885H12.0777V35.4899H14.6791V32.8885Z" fill="black"/>
<path d="M17.2804 32.8885H14.6791V35.4899H17.2804V32.8885Z" fill="black"/>
<path d="M22.4831 32.8885H19.8818V35.4899H22.4831V32.8885Z" fill="black"/>
<path d="M25.0845 32.8885H22.4831V35.4899H25.0845V32.8885Z" fill="black"/>
<path d="M27.6858 32.8885H25.0845V35.4899H27.6858V32.8885Z" fill="black"/>
<path d="M30.2872 32.8885H27.6858V35.4899H30.2872V32.8885Z" fill="black"/>
<path d="M32.8885 32.8885H30.2872V35.4899H32.8885V32.8885Z" fill="black"/>
<path d="M38.0912 32.8885H35.4899V35.4899H38.0912V32.8885Z" fill="black"/>
<path d="M40.6926 32.8885H38.0912V35.4899H40.6926V32.8885Z" fill="black"/>
<path d="M43.2939 32.8885H40.6926V35.4899H43.2939V32.8885Z" fill="black"/>
<path d="M45.8953 32.8885H43.2939V35.4899H45.8953V32.8885Z" fill="black"/>
<path d="M66.7061 32.8885H64.1047V35.4899H66.7061V32.8885Z" fill="black"/>
<path d="M69.3074 32.8885H66.7061V35.4899H69.3074V32.8885Z" fill="black"/>
<path d="M74.5101 32.8885H71.9088V35.4899H74.5101V32.8885Z" fill="black"/>
<path d="M82.3142 32.8885H79.7128V35.4899H82.3142V32.8885Z" fill="black"/>
<path d="M84.9155 32.8885H82.3142V35.4899H84.9155V32.8885Z" fill="black"/>
<path d="M92.7196 32.8885H90.1182V35.4899H92.7196V32.8885Z" fill="black"/>
<path d="M100.524 32.8885H97.9223V35.4899H100.524V32.8885Z" fill="black"/>
<path d="M9.47635 35.4899H6.875V38.0912H9.47635V35.4899Z" fill="black"/>
<path d="M12.0777 35.4899H9.47635V38.0912H12.0777V35.4899Z" fill="black"/>
<path d="M14.6791 35.4899H12.0777V38.0912H14.6791V35.4899Z" fill="black"/>
<path d="M22.4831 35.4899H19.8818V38.0912H22.4831V35.4899Z" fill="black"/>
<path d="M27.6858 35.4899H25.0845V38.0912H27.6858V35.4899Z" fill="black"/>
<path d="M32.8885 35.4899H30.2872V38.0912H32.8885V35.4899Z" fill="black"/>
<path d="M35.4899 35.4899H32.8885V38.0912H35.4899V35.4899Z" fill="black"/>
<path d="M38.0912 35.4899H35.4899V38.0912H38.0912V35.4899Z" fill="black"/>
<path d="M43.2939 35.4899H40.6926L40.6926 38.0912H43.2939V35.4899Z" fill="black"/>
<path d="M45.8953 35.4899H43.2939V38.0912H45.8953V35.4899Z" fill="black"/>
<path d="M48.4966 35.4899H45.8953V38.0912H48.4966V35.4899Z" fill="black"/>
<path d="M69.3074 35.4899H66.7061V38.0912H69.3074V35.4899Z" fill="black"/>
<path d="M71.9088 35.4899H69.3074V38.0912H71.9088V35.4899Z" fill="black"/>
<path d="M74.5101 35.4899H71.9088V38.0912H74.5101V35.4899Z" fill="black"/>
<path d="M82.3142 35.4899H79.7128V38.0912H82.3142V35.4899Z" fill="black"/>
<path d="M97.9223 35.4899H95.3209V38.0912H97.9223V35.4899Z" fill="black"/>
<path d="M100.524 35.4899H97.9223V38.0912H100.524V35.4899Z" fill="black"/>
<path d="M103.125 35.4899H100.524V38.0912H103.125V35.4899Z" fill="black"/>
<path d="M12.0777 38.0912H9.47635V40.6926H12.0777V38.0912Z" fill="black"/>
<path d="M25.0845 38.0912H22.4831V40.6926H25.0845V38.0912Z" fill="black"/>
<path d="M27.6858 38.0912H25.0845V40.6926H27.6858V38.0912Z" fill="black"/>
<path d="M30.2872 38.0912H27.6858V40.6926H30.2872V38.0912Z" fill="black"/>
<path d="M32.8885 38.0912H30.2872V40.6926H32.8885V38.0912Z" fill="black"/>
<path d="M38.0912 38.0912H35.4899V40.6926H38.0912V38.0912Z" fill="black"/>
<path d="M45.8953 38.0912H43.2939V40.6926H45.8953V38.0912Z" fill="black"/>
<path d="M48.4966 38.0912H45.8953V40.6926H48.4966V38.0912Z" fill="black"/>
<path d="M51.098 38.0912L48.4966 38.0912V40.6926H51.098V38.0912Z" fill="black"/>
<path d="M56.3007 38.0912H53.6993V40.6926H56.3007V38.0912Z" fill="black"/>
<path d="M61.5034 38.0912H58.902V40.6926H61.5034V38.0912Z" fill="black"/>
<path d="M64.1047 38.0912H61.5034V40.6926H64.1047V38.0912Z" fill="black"/>
<path d="M66.7061 38.0912L64.1047 38.0912V40.6926H66.7061V38.0912Z" fill="black"/>
<path d="M74.5101 38.0912H71.9088V40.6926H74.5101V38.0912Z" fill="black"/>
<path d="M77.1115 38.0912L74.5101 38.0912V40.6926H77.1115V38.0912Z" fill="black"/>
<path d="M82.3142 38.0912H79.7128V40.6926H82.3142V38.0912Z" fill="black"/>
<path d="M84.9155 38.0912L82.3142 38.0912V40.6926H84.9155V38.0912Z" fill="black"/>
<path d="M90.1182 38.0912H87.5169V40.6926H90.1182V38.0912Z" fill="black"/>
<path d="M92.7196 38.0912H90.1182V40.6926H92.7196V38.0912Z" fill="black"/>
<path d="M97.9223 38.0912H95.3209V40.6926H97.9223V38.0912Z" fill="black"/>
<path d="M9.47635 40.6926L6.875 40.6926V43.2939H9.47635V40.6926Z" fill="black"/>
<path d="M12.0777 40.6926H9.47635V43.2939H12.0777V40.6926Z" fill="black"/>
<path d="M14.6791 40.6926L12.0777 40.6926V43.2939H14.6791V40.6926Z" fill="black"/>
<path d="M19.8818 40.6926H17.2804V43.2939H19.8818V40.6926Z" fill="black"/>
<path d="M22.4831 40.6926L19.8818 40.6926V43.2939H22.4831V40.6926Z" fill="black"/>
<path d="M32.8885 40.6926H30.2872V43.2939H32.8885V40.6926Z" fill="black"/>
<path d="M35.4899 40.6926H32.8885V43.2939H35.4899V40.6926Z" fill="black"/>
<path d="M38.0912 40.6926H35.4899V43.2939H38.0912V40.6926Z" fill="black"/>
<path d="M43.2939 40.6926L40.6926 40.6926V43.2939H43.2939V40.6926Z" fill="black"/>
<path d="M45.8953 40.6926H43.2939V43.2939H45.8953V40.6926Z" fill="black"/>
<path d="M48.4966 40.6926H45.8953V43.2939H48.4966V40.6926Z" fill="black"/>
<path d="M53.6993 40.6926H51.098L51.098 43.2939H53.6993L53.6993 40.6926Z" fill="black"/>
<path d="M61.5034 40.6926H58.902V43.2939H61.5034V40.6926Z" fill="black"/>
<path d="M64.1047 40.6926H61.5034V43.2939H64.1047V40.6926Z" fill="black"/>
<path d="M69.3074 40.6926L66.7061 40.6926V43.2939H69.3074V40.6926Z" fill="black"/>
<path d="M77.1115 40.6926H74.5101V43.2939H77.1115V40.6926Z" fill="black"/>
<path d="M82.3142 40.6926H79.7128V43.2939H82.3142V40.6926Z" fill="black"/>
<path d="M90.1182 40.6926H87.5169V43.2939H90.1182V40.6926Z" fill="black"/>
<path d="M95.3209 40.6926H92.7196V43.2939H95.3209V40.6926Z" fill="black"/>
<path d="M100.524 40.6926L97.9223 40.6926V43.2939H100.524V40.6926Z" fill="black"/>
<path d="M12.0777 43.2939H9.47635V45.8953H12.0777V43.2939Z" fill="black"/>
<path d="M14.6791 43.2939H12.0777V45.8953H14.6791V43.2939Z" fill="black"/>
<path d="M17.2804 43.2939H14.6791V45.8953H17.2804V43.2939Z" fill="black"/>
<path d="M19.8818 43.2939H17.2804V45.8953H19.8818V43.2939Z" fill="black"/>
<path d="M22.4831 43.2939H19.8818V45.8953H22.4831V43.2939Z" fill="black"/>
<path d="M25.0845 43.2939H22.4831V45.8953H25.0845V43.2939Z" fill="black"/>
<path d="M30.2872 43.2939H27.6858V45.8953H30.2872V43.2939Z" fill="black"/>
<path d="M32.8885 43.2939H30.2872V45.8953H32.8885V43.2939Z" fill="black"/>
<path d="M38.0912 43.2939H35.4899V45.8953H38.0912V43.2939Z" fill="black"/>
<path d="M43.2939 43.2939H40.6926V45.8953H43.2939V43.2939Z" fill="black"/>
<path d="M51.098 43.2939H48.4966V45.8953H51.098L51.098 43.2939Z" fill="black"/>
<path d="M58.902 43.2939H56.3007V45.8953H58.902V43.2939Z" fill="black"/>
<path d="M61.5034 43.2939H58.902V45.8953H61.5034V43.2939Z" fill="black"/>
<path d="M64.1047 43.2939H61.5034V45.8953H64.1047V43.2939Z" fill="black"/>
<path d="M66.7061 43.2939H64.1047V45.8953H66.7061V43.2939Z" fill="black"/>
<path d="M69.3074 43.2939H66.7061V45.8953H69.3074V43.2939Z" fill="black"/>
<path d="M74.5101 43.2939H71.9088V45.8953H74.5101V43.2939Z" fill="black"/>
<path d="M79.7128 43.2939H77.1115V45.8953H79.7128V43.2939Z" fill="black"/>
<path d="M84.9155 43.2939H82.3142V45.8953H84.9155V43.2939Z" fill="black"/>
<path d="M90.1182 43.2939H87.5169V45.8953H90.1182V43.2939Z" fill="black"/>
<path d="M92.7196 43.2939H90.1182V45.8953H92.7196V43.2939Z" fill="black"/>
<path d="M95.3209 43.2939H92.7196V45.8953H95.3209V43.2939Z" fill="black"/>
<path d="M9.47635 45.8953H6.875V48.4966H9.47635V45.8953Z" fill="black"/>
<path d="M12.0777 45.8953H9.47635V48.4966H12.0777V45.8953Z" fill="black"/>
<path d="M14.6791 45.8953H12.0777V48.4966H14.6791V45.8953Z" fill="black"/>
<path d="M22.4831 45.8953H19.8818V48.4966H22.4831V45.8953Z" fill="black"/>
<path d="M35.4899 45.8953H32.8885V48.4966H35.4899V45.8953Z" fill="black"/>
<path d="M40.6926 45.8953H38.0912L38.0912 48.4966H40.6926L40.6926 45.8953Z" fill="black"/>
<path d="M43.2939 45.8953H40.6926L40.6926 48.4966H43.2939V45.8953Z" fill="black"/>
<path d="M45.8953 45.8953H43.2939V48.4966H45.8953V45.8953Z" fill="black"/>
<path d="M58.902 45.8953H56.3007V48.4966H58.902V45.8953Z" fill="black"/>
<path d="M64.1047 45.8953H61.5034V48.4966H64.1047V45.8953Z" fill="black"/>
<path d="M66.7061 45.8953H64.1047V48.4966H66.7061V45.8953Z" fill="black"/>
<path d="M77.1115 45.8953H74.5101V48.4966H77.1115V45.8953Z" fill="black"/>
<path d="M82.3142 45.8953H79.7128V48.4966H82.3142V45.8953Z" fill="black"/>
<path d="M84.9155 45.8953H82.3142V48.4966H84.9155V45.8953Z" fill="black"/>
<path d="M87.5169 45.8953H84.9155V48.4966H87.5169V45.8953Z" fill="black"/>
<path d="M92.7196 45.8953H90.1182V48.4966H92.7196V45.8953Z" fill="black"/>
<path d="M100.524 45.8953H97.9223V48.4966H100.524V45.8953Z" fill="black"/>
<path d="M14.6791 48.4966H12.0777V51.098H14.6791V48.4966Z" fill="black"/>
<path d="M19.8818 48.4966H17.2804V51.098H19.8818V48.4966Z" fill="black"/>
<path d="M22.4831 48.4966H19.8818V51.098H22.4831V48.4966Z" fill="black"/>
<path d="M25.0845 48.4966H22.4831V51.098H25.0845V48.4966Z" fill="black"/>
<path d="M27.6858 48.4966H25.0845V51.098H27.6858V48.4966Z" fill="black"/>
<path d="M30.2872 48.4966H27.6858V51.098H30.2872V48.4966Z" fill="black"/>
<path d="M32.8885 48.4966H30.2872V51.098H32.8885V48.4966Z" fill="black"/>
<path d="M35.4899 48.4966H32.8885V51.098H35.4899V48.4966Z" fill="black"/>
<path d="M43.2939 48.4966H40.6926L40.6926 51.098H43.2939V48.4966Z" fill="black"/>
<path d="M53.6993 48.4966H51.098V51.098H53.6993V48.4966Z" fill="black"/>
<path d="M56.3007 48.4966H53.6993V51.098H56.3007V48.4966Z" fill="black"/>
<path d="M58.902 48.4966H56.3007V51.098H58.902V48.4966Z" fill="black"/>
<path d="M66.7061 48.4966H64.1047V51.098H66.7061V48.4966Z" fill="black"/>
<path d="M77.1115 48.4966H74.5101V51.098H77.1115V48.4966Z" fill="black"/>
<path d="M79.7128 48.4966H77.1115V51.098H79.7128V48.4966Z" fill="black"/>
<path d="M84.9155 48.4966H82.3142V51.098H84.9155V48.4966Z" fill="black"/>
<path d="M100.524 48.4966H97.9223V51.098H100.524V48.4966Z" fill="black"/>
<path d="M103.125 48.4966H100.524V51.098H103.125V48.4966Z" fill="black"/>
<path d="M9.47635 51.098H6.875V53.6993H9.47635V51.098Z" fill="black"/>
<path d="M12.0777 51.098L9.47635 51.098V53.6993H12.0777V51.098Z" fill="black"/>
<path d="M17.2804 51.098H14.6791V53.6993H17.2804V51.098Z" fill="black"/>
<path d="M19.8818 51.098H17.2804V53.6993H19.8818V51.098Z" fill="black"/>
<path d="M22.4831 51.098H19.8818V53.6993H22.4831V51.098Z" fill="black"/>
<path d="M27.6858 51.098H25.0845V53.6993H27.6858V51.098Z" fill="black"/>
<path d="M32.8885 51.098H30.2872V53.6993H32.8885V51.098Z" fill="black"/>
<path d="M35.4899 51.098H32.8885V53.6993H35.4899V51.098Z" fill="black"/>
<path d="M56.3007 51.098H53.6993L53.6993 53.6993H56.3007V51.098Z" fill="black"/>
<path d="M61.5034 51.098L58.902 51.098V53.6993H61.5034V51.098Z" fill="black"/>
<path d="M64.1047 51.098L61.5034 51.098V53.6993H64.1047V51.098Z" fill="black"/>
<path d="M66.7061 51.098H64.1047V53.6993H66.7061V51.098Z" fill="black"/>
<path d="M69.3074 51.098L66.7061 51.098V53.6993H69.3074V51.098Z" fill="black"/>
<path d="M71.9088 51.098H69.3074V53.6993H71.9088V51.098Z" fill="black"/>
<path d="M82.3142 51.098H79.7128V53.6993H82.3142V51.098Z" fill="black"/>
<path d="M87.5169 51.098L84.9155 51.098V53.6993H87.5169V51.098Z" fill="black"/>
<path d="M12.0777 53.6993H9.47635V56.3007H12.0777V53.6993Z" fill="black"/>
<path d="M17.2804 53.6993H14.6791V56.3007H17.2804V53.6993Z" fill="black"/>
<path d="M19.8818 53.6993H17.2804V56.3007H19.8818V53.6993Z" fill="black"/>
<path d="M25.0845 53.6993H22.4831V56.3007H25.0845V53.6993Z" fill="black"/>
<path d="M27.6858 53.6993H25.0845V56.3007H27.6858V53.6993Z" fill="black"/>
<path d="M32.8885 53.6993H30.2872V56.3007H32.8885V53.6993Z" fill="black"/>
<path d="M43.2939 53.6993H40.6926V56.3007H43.2939V53.6993Z" fill="black"/>
<path d="M45.8953 53.6993H43.2939V56.3007H45.8953V53.6993Z" fill="black"/>
<path d="M51.098 53.6993H48.4966V56.3007H51.098V53.6993Z" fill="black"/>
<path d="M58.902 53.6993H56.3007V56.3007H58.902V53.6993Z" fill="black"/>
<path d="M64.1047 53.6993H61.5034V56.3007H64.1047V53.6993Z" fill="black"/>
<path d="M69.3074 53.6993H66.7061V56.3007H69.3074V53.6993Z" fill="black"/>
<path d="M74.5101 53.6993L71.9088 53.6993V56.3007H74.5101V53.6993Z" fill="black"/>
<path d="M87.5169 53.6993H84.9155V56.3007H87.5169V53.6993Z" fill="black"/>
<path d="M92.7196 53.6993H90.1182V56.3007H92.7196V53.6993Z" fill="black"/>
<path d="M100.524 53.6993H97.9223V56.3007H100.524V53.6993Z" fill="black"/>
<path d="M9.47635 56.3007H6.875V58.902H9.47635V56.3007Z" fill="black"/>
<path d="M19.8818 56.3007H17.2804V58.902H19.8818V56.3007Z" fill="black"/>
<path d="M35.4899 56.3007H32.8885V58.902H35.4899V56.3007Z" fill="black"/>
<path d="M38.0912 56.3007H35.4899V58.902H38.0912V56.3007Z" fill="black"/>
<path d="M43.2939 56.3007H40.6926V58.902H43.2939V56.3007Z" fill="black"/>
<path d="M56.3007 56.3007H53.6993V58.902H56.3007V56.3007Z" fill="black"/>
<path d="M64.1047 56.3007H61.5034V58.902H64.1047V56.3007Z" fill="black"/>
<path d="M71.9088 56.3007H69.3074V58.902H71.9088V56.3007Z" fill="black"/>
<path d="M77.1115 56.3007H74.5101V58.902H77.1115V56.3007Z" fill="black"/>
<path d="M79.7128 56.3007H77.1115V58.902H79.7128V56.3007Z" fill="black"/>
<path d="M82.3142 56.3007H79.7128V58.902H82.3142V56.3007Z" fill="black"/>
<path d="M84.9155 56.3007H82.3142V58.902H84.9155V56.3007Z" fill="black"/>
<path d="M87.5169 56.3007H84.9155V58.902H87.5169V56.3007Z" fill="black"/>
<path d="M90.1182 56.3007H87.5169V58.902H90.1182V56.3007Z" fill="black"/>
<path d="M92.7196 56.3007H90.1182V58.902H92.7196V56.3007Z" fill="black"/>
<path d="M103.125 56.3007H100.524V58.902H103.125V56.3007Z" fill="black"/>
<path d="M9.47635 58.902H6.875V61.5034H9.47635V58.902Z" fill="black"/>
<path d="M12.0777 58.902H9.47635V61.5034H12.0777V58.902Z" fill="black"/>
<path d="M19.8818 58.902H17.2804V61.5034H19.8818V58.902Z" fill="black"/>
<path d="M25.0845 58.902H22.4831V61.5034H25.0845V58.902Z" fill="black"/>
<path d="M38.0912 58.902H35.4899V61.5034H38.0912V58.902Z" fill="black"/>
<path d="M43.2939 58.902H40.6926V61.5034H43.2939V58.902Z" fill="black"/>
<path d="M48.4966 58.902H45.8953V61.5034H48.4966V58.902Z" fill="black"/>
<path d="M51.098 58.902H48.4966V61.5034H51.098V58.902Z" fill="black"/>
<path d="M61.5034 58.902H58.902V61.5034H61.5034V58.902Z" fill="black"/>
<path d="M66.7061 58.902H64.1047V61.5034H66.7061V58.902Z" fill="black"/>
<path d="M71.9088 58.902H69.3074V61.5034H71.9088V58.902Z" fill="black"/>
<path d="M74.5101 58.902H71.9088V61.5034H74.5101V58.902Z" fill="black"/>
<path d="M84.9155 58.902H82.3142V61.5034H84.9155V58.902Z" fill="black"/>
<path d="M90.1182 58.902H87.5169V61.5034H90.1182V58.902Z" fill="black"/>
<path d="M92.7196 58.902H90.1182V61.5034H92.7196V58.902Z" fill="black"/>
<path d="M95.3209 58.902H92.7196V61.5034H95.3209V58.902Z" fill="black"/>
<path d="M97.9223 58.902H95.3209V61.5034H97.9223V58.902Z" fill="black"/>
<path d="M103.125 58.902H100.524V61.5034H103.125V58.902Z" fill="black"/>
<path d="M9.47635 61.5034H6.875V64.1047H9.47635V61.5034Z" fill="black"/>
<path d="M12.0777 61.5034H9.47635V64.1047H12.0777V61.5034Z" fill="black"/>
<path d="M14.6791 61.5034H12.0777V64.1047H14.6791V61.5034Z" fill="black"/>
<path d="M17.2804 61.5034H14.6791V64.1047H17.2804V61.5034Z" fill="black"/>
<path d="M19.8818 61.5034H17.2804V64.1047H19.8818V61.5034Z" fill="black"/>
<path d="M30.2872 61.5034H27.6858V64.1047H30.2872V61.5034Z" fill="black"/>
<path d="M35.4899 61.5034H32.8885V64.1047H35.4899V61.5034Z" fill="black"/>
<path d="M43.2939 61.5034H40.6926V64.1047H43.2939V61.5034Z" fill="black"/>
<path d="M48.4966 61.5034H45.8953V64.1047H48.4966V61.5034Z" fill="black"/>
<path d="M51.098 61.5034H48.4966V64.1047H51.098V61.5034Z" fill="black"/>
<path d="M53.6993 61.5034H51.098V64.1047H53.6993V61.5034Z" fill="black"/>
<path d="M66.7061 61.5034H64.1047V64.1047H66.7061V61.5034Z" fill="black"/>
<path d="M71.9088 61.5034H69.3074V64.1047H71.9088V61.5034Z" fill="black"/>
<path d="M84.9155 61.5034H82.3142V64.1047H84.9155V61.5034Z" fill="black"/>
<path d="M90.1182 61.5034H87.5169V64.1047H90.1182V61.5034Z" fill="black"/>
<path d="M92.7196 61.5034H90.1182V64.1047H92.7196V61.5034Z" fill="black"/>
<path d="M97.9223 61.5034H95.3209V64.1047H97.9223V61.5034Z" fill="black"/>
<path d="M9.47635 64.1047H6.875V66.7061H9.47635V64.1047Z" fill="black"/>
<path d="M14.6791 64.1047H12.0777V66.7061H14.6791V64.1047Z" fill="black"/>
<path d="M19.8818 64.1047H17.2804V66.7061H19.8818V64.1047Z" fill="black"/>
<path d="M25.0845 64.1047H22.4831V66.7061H25.0845V64.1047Z" fill="black"/>
<path d="M27.6858 64.1047H25.0845V66.7061H27.6858V64.1047Z" fill="black"/>
<path d="M35.4899 64.1047H32.8885V66.7061H35.4899V64.1047Z" fill="black"/>
<path d="M45.8953 64.1047H43.2939V66.7061H45.8953V64.1047Z" fill="black"/>
<path d="M48.4966 64.1047H45.8953V66.7061H48.4966V64.1047Z" fill="black"/>
<path d="M51.098 64.1047H48.4966V66.7061H51.098V64.1047Z" fill="black"/>
<path d="M58.902 64.1047H56.3007V66.7061H58.902V64.1047Z" fill="black"/>
<path d="M61.5034 64.1047H58.902V66.7061H61.5034V64.1047Z" fill="black"/>
<path d="M69.3074 64.1047H66.7061V66.7061H69.3074V64.1047Z" fill="black"/>
<path d="M71.9088 64.1047H69.3074V66.7061H71.9088V64.1047Z" fill="black"/>
<path d="M74.5101 64.1047H71.9088V66.7061H74.5101V64.1047Z" fill="black"/>
<path d="M79.7128 64.1047H77.1115V66.7061H79.7128V64.1047Z" fill="black"/>
<path d="M82.3142 64.1047H79.7128V66.7061H82.3142V64.1047Z" fill="black"/>
<path d="M92.7196 64.1047H90.1182V66.7061H92.7196V64.1047Z" fill="black"/>
<path d="M95.3209 64.1047H92.7196V66.7061H95.3209V64.1047Z" fill="black"/>
<path d="M97.9223 64.1047H95.3209V66.7061H97.9223V64.1047Z" fill="black"/>
<path d="M100.524 64.1047H97.9223V66.7061H100.524V64.1047Z" fill="black"/>
<path d="M103.125 64.1047H100.524V66.7061H103.125V64.1047Z" fill="black"/>
<path d="M9.47635 66.7061H6.875V69.3074H9.47635V66.7061Z" fill="black"/>
<path d="M12.0777 66.7061H9.47635V69.3074H12.0777V66.7061Z" fill="black"/>
<path d="M14.6791 66.7061H12.0777V69.3074H14.6791V66.7061Z" fill="black"/>
<path d="M17.2804 66.7061H14.6791V69.3074H17.2804V66.7061Z" fill="black"/>
<path d="M19.8818 66.7061H17.2804V69.3074H19.8818V66.7061Z" fill="black"/>
<path d="M27.6858 66.7061H25.0845V69.3074H27.6858V66.7061Z" fill="black"/>
<path d="M30.2872 66.7061H27.6858V69.3074H30.2872V66.7061Z" fill="black"/>
<path d="M40.6926 66.7061H38.0912V69.3074H40.6926V66.7061Z" fill="black"/>
<path d="M43.2939 66.7061H40.6926V69.3074H43.2939V66.7061Z" fill="black"/>
<path d="M51.098 66.7061H48.4966V69.3074H51.098V66.7061Z" fill="black"/>
<path d="M58.902 66.7061H56.3007V69.3074H58.902V66.7061Z" fill="black"/>
<path d="M61.5034 66.7061H58.902V69.3074H61.5034V66.7061Z" fill="black"/>
<path d="M64.1047 66.7061H61.5034V69.3074H64.1047V66.7061Z" fill="black"/>
<path d="M69.3074 66.7061H66.7061V69.3074H69.3074V66.7061Z" fill="black"/>
<path d="M84.9155 66.7061H82.3142V69.3074H84.9155V66.7061Z" fill="black"/>
<path d="M87.5169 66.7061H84.9155V69.3074H87.5169V66.7061Z" fill="black"/>
<path d="M90.1182 66.7061H87.5169V69.3074H90.1182V66.7061Z" fill="black"/>
<path d="M97.9223 66.7061H95.3209V69.3074H97.9223V66.7061Z" fill="black"/>
<path d="M100.524 66.7061H97.9223V69.3074H100.524V66.7061Z" fill="black"/>
<path d="M12.0777 69.3074H9.47635V71.9088H12.0777V69.3074Z" fill="black"/>
<path d="M25.0845 69.3074H22.4831V71.9088H25.0845V69.3074Z" fill="black"/>
<path d="M32.8885 69.3074H30.2872V71.9088H32.8885V69.3074Z" fill="black"/>
<path d="M38.0912 69.3074H35.4899V71.9088H38.0912L38.0912 69.3074Z" fill="black"/>
<path d="M40.6926 69.3074H38.0912L38.0912 71.9088H40.6926V69.3074Z" fill="black"/>
<path d="M43.2939 69.3074H40.6926V71.9088H43.2939V69.3074Z" fill="black"/>
<path d="M51.098 69.3074H48.4966V71.9088H51.098V69.3074Z" fill="black"/>
<path d="M56.3007 69.3074H53.6993V71.9088H56.3007V69.3074Z" fill="black"/>
<path d="M61.5034 69.3074H58.902V71.9088H61.5034V69.3074Z" fill="black"/>
<path d="M74.5101 69.3074H71.9088V71.9088H74.5101V69.3074Z" fill="black"/>
<path d="M79.7128 69.3074H77.1115V71.9088H79.7128V69.3074Z" fill="black"/>
<path d="M82.3142 69.3074H79.7128V71.9088H82.3142V69.3074Z" fill="black"/>
<path d="M90.1182 69.3074H87.5169V71.9088H90.1182V69.3074Z" fill="black"/>
<path d="M92.7196 69.3074H90.1182V71.9088H92.7196V69.3074Z" fill="black"/>
<path d="M97.9223 69.3074H95.3209V71.9088H97.9223V69.3074Z" fill="black"/>
<path d="M103.125 69.3074H100.524V71.9088H103.125V69.3074Z" fill="black"/>
<path d="M12.0777 71.9088H9.47635V74.5101H12.0777V71.9088Z" fill="black"/>
<path d="M17.2804 71.9088H14.6791V74.5101H17.2804V71.9088Z" fill="black"/>
<path d="M22.4831 71.9088H19.8818V74.5101H22.4831V71.9088Z" fill="black"/>
<path d="M30.2872 71.9088H27.6858V74.5101H30.2872V71.9088Z" fill="black"/>
<path d="M35.4899 71.9088H32.8885V74.5101H35.4899V71.9088Z" fill="black"/>
<path d="M51.098 71.9088H48.4966V74.5101H51.098V71.9088Z" fill="black"/>
<path d="M53.6993 71.9088H51.098V74.5101H53.6993L53.6993 71.9088Z" fill="black"/>
<path d="M56.3007 71.9088H53.6993L53.6993 74.5101H56.3007V71.9088Z" fill="black"/>
<path d="M61.5034 71.9088H58.902V74.5101H61.5034V71.9088Z" fill="black"/>
<path d="M82.3142 71.9088H79.7128V74.5101H82.3142V71.9088Z" fill="black"/>
<path d="M87.5169 71.9088H84.9155V74.5101H87.5169V71.9088Z" fill="black"/>
<path d="M95.3209 71.9088H92.7196V74.5101H95.3209V71.9088Z" fill="black"/>
<path d="M97.9223 71.9088H95.3209V74.5101H97.9223V71.9088Z" fill="black"/>
<path d="M9.47635 74.5101H6.875V77.1115H9.47635V74.5101Z" fill="black"/>
<path d="M12.0777 74.5101H9.47635V77.1115H12.0777V74.5101Z" fill="black"/>
<path d="M14.6791 74.5101H12.0777V77.1115H14.6791V74.5101Z" fill="black"/>
<path d="M25.0845 74.5101H22.4831V77.1115H25.0845V74.5101Z" fill="black"/>
<path d="M27.6858 74.5101H25.0845V77.1115H27.6858V74.5101Z" fill="black"/>
<path d="M30.2872 74.5101H27.6858V77.1115H30.2872V74.5101Z" fill="black"/>
<path d="M32.8885 74.5101H30.2872V77.1115H32.8885V74.5101Z" fill="black"/>
<path d="M35.4899 74.5101H32.8885V77.1115H35.4899V74.5101Z" fill="black"/>
<path d="M38.0912 74.5101H35.4899V77.1115H38.0912V74.5101Z" fill="black"/>
<path d="M51.098 74.5101H48.4966V77.1115H51.098V74.5101Z" fill="black"/>
<path d="M53.6993 74.5101H51.098V77.1115H53.6993V74.5101Z" fill="black"/>
<path d="M61.5034 74.5101H58.902V77.1115H61.5034V74.5101Z" fill="black"/>
<path d="M64.1047 74.5101H61.5034V77.1115H64.1047V74.5101Z" fill="black"/>
<path d="M74.5101 74.5101H71.9088V77.1115H74.5101V74.5101Z" fill="black"/>
<path d="M77.1115 74.5101H74.5101V77.1115H77.1115V74.5101Z" fill="black"/>
<path d="M87.5169 74.5101H84.9155V77.1115H87.5169V74.5101Z" fill="black"/>
<path d="M95.3209 74.5101H92.7196V77.1115H95.3209V74.5101Z" fill="black"/>
<path d="M97.9223 74.5101H95.3209V77.1115H97.9223V74.5101Z" fill="black"/>
<path d="M14.6791 77.1115H12.0777V79.7128H14.6791V77.1115Z" fill="black"/>
<path d="M27.6858 77.1115H25.0845V79.7128H27.6858V77.1115Z" fill="black"/>
<path d="M32.8885 77.1115H30.2872V79.7128H32.8885V77.1115Z" fill="black"/>
<path d="M35.4899 77.1115H32.8885V79.7128H35.4899V77.1115Z" fill="black"/>
<path d="M38.0912 77.1115H35.4899V79.7128H38.0912V77.1115Z" fill="black"/>
<path d="M40.6926 77.1115H38.0912V79.7128H40.6926V77.1115Z" fill="black"/>
<path d="M43.2939 77.1115H40.6926V79.7128H43.2939V77.1115Z" fill="black"/>
<path d="M45.8953 77.1115H43.2939V79.7128H45.8953V77.1115Z" fill="black"/>
<path d="M48.4966 77.1115H45.8953V79.7128H48.4966V77.1115Z" fill="black"/>
<path d="M51.098 77.1115H48.4966V79.7128H51.098V77.1115Z" fill="black"/>
<path d="M53.6993 77.1115H51.098V79.7128H53.6993V77.1115Z" fill="black"/>
<path d="M56.3007 77.1115H53.6993V79.7128H56.3007V77.1115Z" fill="black"/>
<path d="M64.1047 77.1115H61.5034V79.7128H64.1047V77.1115Z" fill="black"/>
<path d="M66.7061 77.1115H64.1047V79.7128H66.7061V77.1115Z" fill="black"/>
<path d="M69.3074 77.1115H66.7061V79.7128H69.3074V77.1115Z" fill="black"/>
<path d="M74.5101 77.1115H71.9088V79.7128H74.5101V77.1115Z" fill="black"/>
<path d="M77.1115 77.1115H74.5101V79.7128H77.1115V77.1115Z" fill="black"/>
<path d="M79.7128 77.1115H77.1115V79.7128H79.7128V77.1115Z" fill="black"/>
<path d="M92.7196 77.1115H90.1182V79.7128H92.7196V77.1115Z" fill="black"/>
<path d="M95.3209 77.1115H92.7196V79.7128H95.3209V77.1115Z" fill="black"/>
<path d="M97.9223 77.1115H95.3209V79.7128H97.9223V77.1115Z" fill="black"/>
<path d="M103.125 77.1115H100.524V79.7128H103.125V77.1115Z" fill="black"/>
<path d="M14.6791 79.7128H12.0777V82.3142H14.6791V79.7128Z" fill="black"/>
<path d="M17.2804 79.7128H14.6791V82.3142H17.2804V79.7128Z" fill="black"/>
<path d="M19.8818 79.7128H17.2804V82.3142H19.8818V79.7128Z" fill="black"/>
<path d="M22.4831 79.7128H19.8818V82.3142H22.4831V79.7128Z" fill="black"/>
<path d="M25.0845 79.7128H22.4831V82.3142H25.0845V79.7128Z" fill="black"/>
<path d="M27.6858 79.7128H25.0845V82.3142H27.6858V79.7128Z" fill="black"/>
<path d="M30.2872 79.7128H27.6858V82.3142H30.2872V79.7128Z" fill="black"/>
<path d="M35.4899 79.7128H32.8885V82.3142H35.4899V79.7128Z" fill="black"/>
<path d="M40.6926 79.7128H38.0912L38.0912 82.3142H40.6926V79.7128Z" fill="black"/>
<path d="M43.2939 79.7128H40.6926V82.3142H43.2939V79.7128Z" fill="black"/>
<path d="M45.8953 79.7128H43.2939V82.3142H45.8953V79.7128Z" fill="black"/>
<path d="M51.098 79.7128H48.4966V82.3142H51.098V79.7128Z" fill="black"/>
<path d="M53.6993 79.7128H51.098V82.3142H53.6993V79.7128Z" fill="black"/>
<path d="M58.902 79.7128H56.3007V82.3142H58.902V79.7128Z" fill="black"/>
<path d="M69.3074 79.7128H66.7061V82.3142H69.3074V79.7128Z" fill="black"/>
<path d="M71.9088 79.7128H69.3074V82.3142H71.9088V79.7128Z" fill="black"/>
<path d="M74.5101 79.7128H71.9088V82.3142H74.5101V79.7128Z" fill="black"/>
<path d="M82.3142 79.7128H79.7128V82.3142H82.3142V79.7128Z" fill="black"/>
<path d="M84.9155 79.7128H82.3142V82.3142H84.9155V79.7128Z" fill="black"/>
<path d="M87.5169 79.7128H84.9155V82.3142H87.5169V79.7128Z" fill="black"/>
<path d="M90.1182 79.7128H87.5169V82.3142H90.1182V79.7128Z" fill="black"/>
<path d="M92.7196 79.7128H90.1182V82.3142H92.7196V79.7128Z" fill="black"/>
<path d="M95.3209 79.7128H92.7196V82.3142H95.3209V79.7128Z" fill="black"/>
<path d="M97.9223 79.7128H95.3209V82.3142H97.9223V79.7128Z" fill="black"/>
<path d="M100.524 79.7128H97.9223V82.3142H100.524V79.7128Z" fill="black"/>
<path d="M103.125 79.7128H100.524V82.3142H103.125V79.7128Z" fill="black"/>
<path d="M30.2872 82.3142H27.6858V84.9155H30.2872V82.3142Z" fill="black"/>
<path d="M32.8885 82.3142H30.2872V84.9155H32.8885V82.3142Z" fill="black"/>
<path d="M48.4966 82.3142H45.8953V84.9155H48.4966V82.3142Z" fill="black"/>
<path d="M51.098 82.3142H48.4966V84.9155H51.098V82.3142Z" fill="black"/>
<path d="M53.6993 82.3142H51.098V84.9155H53.6993V82.3142Z" fill="black"/>
<path d="M61.5034 82.3142H58.902V84.9155H61.5034V82.3142Z" fill="black"/>
<path d="M66.7061 82.3142H64.1047V84.9155H66.7061V82.3142Z" fill="black"/>
<path d="M79.7128 82.3142H77.1115V84.9155H79.7128V82.3142Z" fill="black"/>
<path d="M82.3142 82.3142H79.7128V84.9155H82.3142V82.3142Z" fill="black"/>
<path d="M92.7196 82.3142H90.1182V84.9155H92.7196V82.3142Z" fill="black"/>
<path d="M95.3209 82.3142H92.7196V84.9155H95.3209V82.3142Z" fill="black"/>
<path d="M97.9223 82.3142H95.3209V84.9155H97.9223V82.3142Z" fill="black"/>
<path d="M9.47635 84.9155H6.875V87.5169H9.47635V84.9155Z" fill="black"/>
<path d="M12.0777 84.9155H9.47635V87.5169H12.0777V84.9155Z" fill="black"/>
<path d="M14.6791 84.9155H12.0777V87.5169H14.6791V84.9155Z" fill="black"/>
<path d="M17.2804 84.9155H14.6791V87.5169H17.2804V84.9155Z" fill="black"/>
<path d="M19.8818 84.9155H17.2804V87.5169H19.8818V84.9155Z" fill="black"/>
<path d="M22.4831 84.9155H19.8818V87.5169H22.4831V84.9155Z" fill="black"/>
<path d="M25.0845 84.9155H22.4831V87.5169H25.0845V84.9155Z" fill="black"/>
<path d="M30.2872 84.9155H27.6858V87.5169H30.2872V84.9155Z" fill="black"/>
<path d="M35.4899 84.9155H32.8885V87.5169H35.4899V84.9155Z" fill="black"/>
<path d="M38.0912 84.9155H35.4899V87.5169H38.0912V84.9155Z" fill="black"/>
<path d="M40.6926 84.9155H38.0912V87.5169H40.6926V84.9155Z" fill="black"/>
<path d="M45.8953 84.9155H43.2939V87.5169H45.8953V84.9155Z" fill="black"/>
<path d="M51.098 84.9155H48.4966V87.5169H51.098V84.9155Z" fill="black"/>
<path d="M58.902 84.9155H56.3007V87.5169H58.902V84.9155Z" fill="black"/>
<path d="M61.5034 84.9155H58.902V87.5169H61.5034V84.9155Z" fill="black"/>
<path d="M66.7061 84.9155H64.1047V87.5169H66.7061V84.9155Z" fill="black"/>
<path d="M69.3074 84.9155H66.7061V87.5169H69.3074V84.9155Z" fill="black"/>
<path d="M71.9088 84.9155H69.3074V87.5169H71.9088V84.9155Z" fill="black"/>
<path d="M77.1115 84.9155H74.5101V87.5169H77.1115V84.9155Z" fill="black"/>
<path d="M79.7128 84.9155H77.1115V87.5169H79.7128V84.9155Z" fill="black"/>
<path d="M82.3142 84.9155H79.7128V87.5169H82.3142V84.9155Z" fill="black"/>
<path d="M87.5169 84.9155H84.9155V87.5169H87.5169V84.9155Z" fill="black"/>
<path d="M92.7196 84.9155H90.1182V87.5169H92.7196V84.9155Z" fill="black"/>
<path d="M95.3209 84.9155H92.7196V87.5169H95.3209V84.9155Z" fill="black"/>
<path d="M100.524 84.9155H97.9223V87.5169H100.524V84.9155Z" fill="black"/>
<path d="M9.47635 87.5169H6.875V90.1182H9.47635V87.5169Z" fill="black"/>
<path d="M25.0845 87.5169H22.4831V90.1182H25.0845V87.5169Z" fill="black"/>
<path d="M32.8885 87.5169H30.2872V90.1182H32.8885V87.5169Z" fill="black"/>
<path d="M35.4899 87.5169H32.8885V90.1182H35.4899V87.5169Z" fill="black"/>
<path d="M38.0912 87.5169H35.4899V90.1182H38.0912V87.5169Z" fill="black"/>
<path d="M43.2939 87.5169H40.6926L40.6926 90.1182H43.2939V87.5169Z" fill="black"/>
<path d="M45.8953 87.5169H43.2939V90.1182H45.8953V87.5169Z" fill="black"/>
<path d="M48.4966 87.5169H45.8953V90.1182H48.4966V87.5169Z" fill="black"/>
<path d="M53.6993 87.5169H51.098L51.098 90.1182H53.6993V87.5169Z" fill="black"/>
<path d="M56.3007 87.5169H53.6993V90.1182H56.3007V87.5169Z" fill="black"/>
<path d="M58.902 87.5169H56.3007V90.1182H58.902V87.5169Z" fill="black"/>
<path d="M66.7061 87.5169H64.1047V90.1182H66.7061V87.5169Z" fill="black"/>
<path d="M69.3074 87.5169H66.7061V90.1182H69.3074V87.5169Z" fill="black"/>
<path d="M71.9088 87.5169H69.3074V90.1182H71.9088V87.5169Z" fill="black"/>
<path d="M77.1115 87.5169H74.5101V90.1182H77.1115V87.5169Z" fill="black"/>
<path d="M79.7128 87.5169H77.1115V90.1182H79.7128V87.5169Z" fill="black"/>
<path d="M82.3142 87.5169H79.7128V90.1182H82.3142V87.5169Z" fill="black"/>
<path d="M92.7196 87.5169H90.1182V90.1182H92.7196V87.5169Z" fill="black"/>
<path d="M103.125 87.5169H100.524V90.1182H103.125V87.5169Z" fill="black"/>
<path d="M9.47635 90.1182H6.875V92.7196H9.47635V90.1182Z" fill="black"/>
<path d="M14.6791 90.1182H12.0777V92.7196H14.6791V90.1182Z" fill="black"/>
<path d="M17.2804 90.1182H14.6791V92.7196H17.2804V90.1182Z" fill="black"/>
<path d="M19.8818 90.1182H17.2804V92.7196H19.8818V90.1182Z" fill="black"/>
<path d="M25.0845 90.1182H22.4831V92.7196H25.0845V90.1182Z" fill="black"/>
<path d="M32.8885 90.1182H30.2872V92.7196H32.8885V90.1182Z" fill="black"/>
<path d="M38.0912 90.1182H35.4899V92.7196H38.0912V90.1182Z" fill="black"/>
<path d="M45.8953 90.1182H43.2939V92.7196H45.8953V90.1182Z" fill="black"/>
<path d="M51.098 90.1182H48.4966V92.7196H51.098L51.098 90.1182Z" fill="black"/>
<path d="M58.902 90.1182H56.3007V92.7196H58.902V90.1182Z" fill="black"/>
<path d="M61.5034 90.1182H58.902V92.7196H61.5034V90.1182Z" fill="black"/>
<path d="M64.1047 90.1182H61.5034V92.7196H64.1047V90.1182Z" fill="black"/>
<path d="M66.7061 90.1182H64.1047V92.7196H66.7061V90.1182Z" fill="black"/>
<path d="M69.3074 90.1182H66.7061V92.7196H69.3074V90.1182Z" fill="black"/>
<path d="M82.3142 90.1182H79.7128V92.7196H82.3142V90.1182Z" fill="black"/>
<path d="M84.9155 90.1182H82.3142V92.7196H84.9155V90.1182Z" fill="black"/>
<path d="M87.5169 90.1182H84.9155V92.7196H87.5169V90.1182Z" fill="black"/>
<path d="M90.1182 90.1182H87.5169V92.7196H90.1182V90.1182Z" fill="black"/>
<path d="M92.7196 90.1182H90.1182V92.7196H92.7196V90.1182Z" fill="black"/>
<path d="M100.524 90.1182H97.9223V92.7196H100.524V90.1182Z" fill="black"/>
<path d="M9.47635 92.7196H6.875V95.3209H9.47635V92.7196Z" fill="black"/>
<path d="M14.6791 92.7196H12.0777V95.3209H14.6791V92.7196Z" fill="black"/>
<path d="M17.2804 92.7196H14.6791V95.3209H17.2804V92.7196Z" fill="black"/>
<path d="M19.8818 92.7196H17.2804V95.3209H19.8818V92.7196Z" fill="black"/>
<path d="M25.0845 92.7196H22.4831V95.3209H25.0845V92.7196Z" fill="black"/>
<path d="M30.2872 92.7196H27.6858V95.3209H30.2872V92.7196Z" fill="black"/>
<path d="M32.8885 92.7196H30.2872V95.3209H32.8885V92.7196Z" fill="black"/>
<path d="M35.4899 92.7196H32.8885V95.3209H35.4899V92.7196Z" fill="black"/>
<path d="M43.2939 92.7196H40.6926V95.3209H43.2939V92.7196Z" fill="black"/>
<path d="M45.8953 92.7196H43.2939V95.3209H45.8953V92.7196Z" fill="black"/>
<path d="M48.4966 92.7196H45.8953V95.3209H48.4966V92.7196Z" fill="black"/>
<path d="M53.6993 92.7196H51.098L51.098 95.3209H53.6993V92.7196Z" fill="black"/>
<path d="M58.902 92.7196H56.3007V95.3209H58.902V92.7196Z" fill="black"/>
<path d="M61.5034 92.7196H58.902V95.3209H61.5034V92.7196Z" fill="black"/>
<path d="M66.7061 92.7196H64.1047V95.3209H66.7061V92.7196Z" fill="black"/>
<path d="M69.3074 92.7196H66.7061V95.3209H69.3074V92.7196Z" fill="black"/>
<path d="M79.7128 92.7196H77.1115V95.3209H79.7128V92.7196Z" fill="black"/>
<path d="M82.3142 92.7196H79.7128V95.3209H82.3142V92.7196Z" fill="black"/>
<path d="M95.3209 92.7196H92.7196V95.3209H95.3209V92.7196Z" fill="black"/>
<path d="M100.524 92.7196H97.9223V95.3209H100.524V92.7196Z" fill="black"/>
<path d="M103.125 92.7196H100.524V95.3209H103.125V92.7196Z" fill="black"/>
<path d="M9.47635 95.3209H6.875V97.9223H9.47635V95.3209Z" fill="black"/>
<path d="M14.6791 95.3209H12.0777V97.9223H14.6791V95.3209Z" fill="black"/>
<path d="M17.2804 95.3209H14.6791V97.9223H17.2804V95.3209Z" fill="black"/>
<path d="M19.8818 95.3209H17.2804V97.9223H19.8818V95.3209Z" fill="black"/>
<path d="M25.0845 95.3209H22.4831V97.9223H25.0845V95.3209Z" fill="black"/>
<path d="M30.2872 95.3209H27.6858V97.9223H30.2872V95.3209Z" fill="black"/>
<path d="M32.8885 95.3209H30.2872V97.9223H32.8885V95.3209Z" fill="black"/>
<path d="M48.4966 95.3209H45.8953V97.9223H48.4966V95.3209Z" fill="black"/>
<path d="M51.098 95.3209H48.4966V97.9223H51.098L51.098 95.3209Z" fill="black"/>
<path d="M53.6993 95.3209H51.098L51.098 97.9223H53.6993V95.3209Z" fill="black"/>
<path d="M56.3007 95.3209H53.6993V97.9223H56.3007V95.3209Z" fill="black"/>
<path d="M61.5034 95.3209H58.902V97.9223H61.5034V95.3209Z" fill="black"/>
<path d="M64.1047 95.3209H61.5034V97.9223H64.1047V95.3209Z" fill="black"/>
<path d="M77.1115 95.3209H74.5101V97.9223H77.1115V95.3209Z" fill="black"/>
<path d="M79.7128 95.3209H77.1115V97.9223H79.7128V95.3209Z" fill="black"/>
<path d="M82.3142 95.3209H79.7128V97.9223H82.3142V95.3209Z" fill="black"/>
<path d="M92.7196 95.3209H90.1182V97.9223H92.7196V95.3209Z" fill="black"/>
<path d="M97.9223 95.3209H95.3209V97.9223H97.9223V95.3209Z" fill="black"/>
<path d="M9.47635 97.9223H6.875V100.524H9.47635V97.9223Z" fill="black"/>
<path d="M25.0845 97.9223H22.4831V100.524H25.0845V97.9223Z" fill="black"/>
<path d="M30.2872 97.9223H27.6858V100.524H30.2872V97.9223Z" fill="black"/>
<path d="M32.8885 97.9223H30.2872V100.524H32.8885V97.9223Z" fill="black"/>
<path d="M35.4899 97.9223H32.8885V100.524H35.4899V97.9223Z" fill="black"/>
<path d="M45.8953 97.9223H43.2939V100.524H45.8953V97.9223Z" fill="black"/>
<path d="M48.4966 97.9223H45.8953V100.524H48.4966V97.9223Z" fill="black"/>
<path d="M53.6993 97.9223H51.098L51.098 100.524H53.6993V97.9223Z" fill="black"/>
<path d="M66.7061 97.9223H64.1047V100.524H66.7061V97.9223Z" fill="black"/>
<path d="M69.3074 97.9223H66.7061V100.524H69.3074V97.9223Z" fill="black"/>
<path d="M77.1115 97.9223H74.5101V100.524H77.1115V97.9223Z" fill="black"/>
<path d="M82.3142 97.9223H79.7128V100.524H82.3142V97.9223Z" fill="black"/>
<path d="M84.9155 97.9223H82.3142V100.524H84.9155V97.9223Z" fill="black"/>
<path d="M87.5169 97.9223H84.9155V100.524H87.5169V97.9223Z" fill="black"/>
<path d="M90.1182 97.9223H87.5169V100.524H90.1182V97.9223Z" fill="black"/>
<path d="M95.3209 97.9223H92.7196V100.524H95.3209V97.9223Z" fill="black"/>
<path d="M9.47635 100.524H6.875V103.125H9.47635V100.524Z" fill="black"/>
<path d="M12.0777 100.524H9.47635V103.125H12.0777V100.524Z" fill="black"/>
<path d="M14.6791 100.524H12.0777V103.125H14.6791V100.524Z" fill="black"/>
<path d="M17.2804 100.524H14.6791V103.125H17.2804V100.524Z" fill="black"/>
<path d="M19.8818 100.524H17.2804V103.125H19.8818V100.524Z" fill="black"/>
<path d="M22.4831 100.524H19.8818V103.125H22.4831V100.524Z" fill="black"/>
<path d="M25.0845 100.524H22.4831V103.125H25.0845V100.524Z" fill="black"/>
<path d="M35.4899 100.524H32.8885V103.125H35.4899V100.524Z" fill="black"/>
<path d="M38.0912 100.524H35.4899V103.125H38.0912V100.524Z" fill="black"/>
<path d="M40.6926 100.524H38.0912V103.125H40.6926V100.524Z" fill="black"/>
<path d="M45.8953 100.524H43.2939V103.125H45.8953V100.524Z" fill="black"/>
<path d="M48.4966 100.524H45.8953V103.125H48.4966V100.524Z" fill="black"/>
<path d="M56.3007 100.524H53.6993L53.6993 103.125H56.3007V100.524Z" fill="black"/>
<path d="M58.902 100.524H56.3007V103.125H58.902V100.524Z" fill="black"/>
<path d="M66.7061 100.524H64.1047V103.125H66.7061V100.524Z" fill="black"/>
<path d="M77.1115 100.524H74.5101V103.125H77.1115V100.524Z" fill="black"/>
<path d="M87.5169 100.524H84.9155V103.125H87.5169V100.524Z" fill="black"/>
<path d="M92.7196 100.524H90.1182V103.125H92.7196V100.524Z" fill="black"/>
<path d="M97.9223 100.524H95.3209V103.125H97.9223V100.524Z" fill="black"/>
<path d="M100.524 100.524H97.9223V103.125H100.524V100.524Z" fill="black"/>
<path d="M103.125 100.524H100.524V103.125H103.125V100.524Z" fill="black"/>
</svg>
