<svg width="184" height="104" viewBox="50 0 184 104" fill="none" xmlns="http://www.w3.org/2000/svg">
<path d="M6.57745 3.14968C6.58137 3.77759 6.39123 4.39245 6.03137 4.91611C5.67151 5.43977 5.15812 5.8486 4.55638 6.09063C3.95464 6.33267 3.29179 6.39698 2.652 6.2754C2.0122 6.15383 1.42434 5.85185 0.963215 5.40784C0.502087 4.96384 0.188498 4.39785 0.0622339 3.78181C-0.0640305 3.16578 0.00276651 2.5275 0.254135 1.94811C0.505504 1.36871 0.93013 0.874349 1.47399 0.527851C2.01784 0.181353 2.65635 -0.00163899 3.30848 0.00213234C4.17545 0.00213234 5.00696 0.333749 5.62 0.92403C6.23304 1.51431 6.57745 2.3149 6.57745 3.14968V3.14968Z" fill="#F56867"/>
<path d="M31.8567 3.14962C31.8607 3.77672 31.6711 4.39082 31.3121 4.91407C30.9531 5.43732 30.4409 5.84617 29.8403 6.08877C29.2397 6.33137 28.5778 6.39681 27.9385 6.27679C27.2993 6.15677 26.7114 5.85669 26.2495 5.41459C25.7876 4.9725 25.4725 4.40831 25.3439 3.79353C25.2154 3.17875 25.2794 2.54107 25.5277 1.96133C25.7761 1.38159 26.1975 0.885905 26.7388 0.537101C27.28 0.188297 27.9166 0.00208657 28.5679 0.0020752C29.4367 0.00206002 30.2703 0.333066 30.8865 0.922804C31.5027 1.51254 31.8515 2.31309 31.8567 3.14962V3.14962Z" fill="#F56867"/>
<path d="M57.1165 3.14968C57.1204 3.77759 56.9303 4.39245 56.5704 4.91611C56.2106 5.43977 55.6972 5.8486 55.0954 6.09063C54.4937 6.33267 53.8309 6.39698 53.1911 6.2754C52.5513 6.15383 51.9634 5.85185 51.5023 5.40784C51.0411 4.96384 50.7276 4.39785 50.6013 3.78181C50.475 3.16578 50.5418 2.5275 50.7932 1.94811C51.0446 1.36871 51.4692 0.874349 52.013 0.527851C52.5569 0.181353 53.1954 -0.00163899 53.8475 0.00213234C54.7145 0.00213234 55.546 0.333749 56.1591 0.92403C56.7721 1.51431 57.1165 2.3149 57.1165 3.14968V3.14968Z" fill="#F56867"/>
<path d="M82.3957 3.14962C82.3996 3.77672 82.2102 4.39082 81.8512 4.91407C81.4922 5.43732 80.9799 5.84617 80.3793 6.08877C79.7788 6.33137 79.1169 6.39681 78.4776 6.27679C77.8384 6.15677 77.2505 5.85669 76.7886 5.41459C76.3267 4.9725 76.0115 4.40831 75.883 3.79353C75.7545 3.17875 75.8185 2.54107 76.0668 1.96133C76.3151 1.38159 76.7366 0.885905 77.2778 0.537101C77.8191 0.188297 78.4557 0.00208657 79.107 0.0020752C79.9758 0.00206002 80.8093 0.333066 81.4255 0.922804C82.0417 1.51254 82.3905 2.31309 82.3957 3.14962V3.14962Z" fill="#F56867"/>
<path d="M107.657 3.14962C107.661 3.7815 107.468 4.39996 107.104 4.92543C106.739 5.4509 106.22 5.85934 105.612 6.09823C105.005 6.33713 104.337 6.39553 103.694 6.26595C103.052 6.13636 102.465 5.8247 102.008 5.37106C101.551 4.91742 101.246 4.34255 101.131 3.72039C101.016 3.09823 101.097 2.45723 101.364 1.87986C101.631 1.30248 102.07 0.815131 102.627 0.480494C103.184 0.145857 103.832 -0.0207624 104.488 0.00206819C105.337 0.0268716 106.144 0.369404 106.735 0.957017C107.327 1.54463 107.658 2.3311 107.657 3.14962Z" fill="#F56867"/>
<path d="M132.937 3.14962C132.941 3.77672 132.751 4.39082 132.392 4.91407C132.033 5.43732 131.521 5.84617 130.92 6.08877C130.32 6.33137 129.658 6.39681 129.019 6.27679C128.379 6.15677 127.792 5.85669 127.33 5.41459C126.868 4.9725 126.553 4.40831 126.424 3.79353C126.296 3.17875 126.359 2.54107 126.608 1.96133C126.856 1.38159 127.278 0.885905 127.819 0.537101C128.36 0.188297 128.997 0.00208657 129.648 0.0020752C130.517 0.00206002 131.35 0.333066 131.967 0.922804C132.583 1.51254 132.932 2.31309 132.937 3.14962V3.14962Z" fill="#F56867"/>
<path d="M158.197 3.14962C158.2 3.77672 158.011 4.39082 157.652 4.91407C157.293 5.43732 156.781 5.84617 156.18 6.08877C155.58 6.33137 154.918 6.39681 154.278 6.27679C153.639 6.15677 153.051 5.85669 152.589 5.41459C152.127 4.9725 151.812 4.40831 151.684 3.79353C151.555 3.17875 151.619 2.54107 151.868 1.96133C152.116 1.38159 152.537 0.885905 153.079 0.537101C153.62 0.188297 154.257 0.00208657 154.908 0.0020752C155.777 0.00206002 156.61 0.333066 157.226 0.922804C157.843 1.51254 158.191 2.31309 158.197 3.14962V3.14962Z" fill="#F56867"/>
<path d="M183.476 3.14962C183.48 3.77672 183.29 4.39082 182.931 4.91407C182.572 5.43732 182.06 5.84617 181.46 6.08877C180.859 6.33137 180.197 6.39681 179.558 6.27679C178.919 6.15677 178.331 5.85669 177.869 5.41459C177.407 4.9725 177.092 4.40831 176.963 3.79353C176.835 3.17875 176.899 2.54107 177.147 1.96133C177.395 1.38159 177.817 0.885905 178.358 0.537101C178.899 0.188297 179.536 0.00208657 180.187 0.0020752C181.056 0.00206002 181.889 0.333066 182.506 0.922804C183.122 1.51254 183.471 2.31309 183.476 3.14962V3.14962Z" fill="#F56867"/>
<path d="M3.30834 30.6565C5.12465 30.6565 6.59702 29.2388 6.59702 27.49C6.59702 25.7412 5.12465 24.3235 3.30834 24.3235C1.49202 24.3235 0.0195312 25.7412 0.0195312 27.49C0.0195312 29.2388 1.49202 30.6565 3.30834 30.6565Z" fill="#F56867"/>
<path d="M28.5876 30.6565C30.404 30.6565 31.8763 29.2388 31.8763 27.49C31.8763 25.7412 30.404 24.3235 28.5876 24.3235C26.7713 24.3235 25.2988 25.7412 25.2988 27.49C25.2988 29.2388 26.7713 30.6565 28.5876 30.6565Z" fill="#F56867"/>
<path d="M57.1166 27.4901C57.1166 28.1172 56.9231 28.7302 56.5609 29.2513C56.1986 29.7725 55.6839 30.1783 55.0818 30.4174C54.4797 30.6565 53.8175 30.7181 53.179 30.5944C52.5405 30.4706 51.9545 30.1671 51.4954 29.7224C51.0363 29.2776 50.7245 28.7116 50.5999 28.0961C50.4752 27.4806 50.5432 26.8433 50.7951 26.265C51.0471 25.6868 51.4717 25.1936 52.0151 24.8479C52.5585 24.5023 53.1964 24.3198 53.8477 24.3235C54.7165 24.3286 55.5479 24.6644 56.1604 25.2577C56.7729 25.851 57.1167 26.6536 57.1166 27.4901V27.4901Z" fill="#F56867"/>
<path d="M79.1072 30.6565C80.9235 30.6565 82.3959 29.2388 82.3959 27.49C82.3959 25.7412 80.9235 24.3235 79.1072 24.3235C77.2908 24.3235 75.8184 25.7412 75.8184 27.49C75.8184 29.2388 77.2908 30.6565 79.1072 30.6565Z" fill="#F56867"/>
<path d="M107.657 27.4901C107.657 28.1212 107.461 28.7378 107.094 29.2607C106.727 29.7836 106.206 30.1891 105.598 30.425C104.99 30.661 104.323 30.7166 103.682 30.5849C103.041 30.4531 102.456 30.14 102.001 29.6856C101.546 29.2312 101.243 28.6563 101.129 28.0347C101.016 27.4131 101.099 26.7731 101.366 26.1969C101.633 25.6206 102.073 25.1344 102.629 24.8006C103.186 24.4668 103.833 24.3007 104.488 24.3235C105.339 24.3531 106.145 24.6998 106.737 25.2905C107.328 25.8812 107.658 26.6697 107.657 27.4901V27.4901Z" fill="#F56867"/>
<path d="M129.648 30.6565C131.465 30.6565 132.937 29.2388 132.937 27.49C132.937 25.7412 131.465 24.3235 129.648 24.3235C127.832 24.3235 126.359 25.7412 126.359 27.49C126.359 29.2388 127.832 30.6565 129.648 30.6565Z" fill="#F56867"/>
<path d="M154.927 30.6565C156.744 30.6565 158.216 29.2388 158.216 27.49C158.216 25.7412 156.744 24.3235 154.927 24.3235C153.111 24.3235 151.639 25.7412 151.639 27.49C151.639 29.2388 153.111 30.6565 154.927 30.6565Z" fill="#F56867"/>
<path d="M183.476 27.4901C183.476 28.1163 183.283 28.7286 182.922 29.2493C182.56 29.77 182.047 30.1759 181.446 30.4156C180.845 30.6552 180.184 30.718 179.546 30.5958C178.908 30.4736 178.322 30.172 177.862 29.7291C177.402 29.2863 177.089 28.7221 176.962 28.1078C176.835 27.4936 176.9 26.8569 177.149 26.2783C177.398 25.6996 177.819 25.2051 178.36 24.8572C178.901 24.5092 179.537 24.3235 180.187 24.3235C181.059 24.3235 181.896 24.6571 182.513 25.251C183.129 25.8448 183.476 26.6502 183.476 27.4901V27.4901Z" fill="#F56867"/>
<path d="M6.57745 51.8115C6.58137 52.4394 6.39123 53.0543 6.03137 53.5779C5.67151 54.1015 5.15812 54.5104 4.55638 54.7524C3.95464 54.9944 3.29179 55.0587 2.652 54.9371C2.0122 54.8156 1.42434 54.5136 0.963215 54.0696C0.502087 53.6256 0.188498 53.0597 0.0622339 52.4437C-0.0640305 51.8276 0.00276651 51.1894 0.254135 50.61C0.505504 50.0306 0.93013 49.5363 1.47399 49.1898C2.01784 48.8433 2.65635 48.6603 3.30848 48.6641C4.17545 48.6641 5.00696 48.9957 5.62 49.586C6.23304 50.1762 6.57745 50.9768 6.57745 51.8115V51.8115Z" fill="#F56867"/>
<path d="M31.8567 51.8115C31.8607 52.4386 31.6711 53.0526 31.3121 53.5759C30.9531 54.0991 30.4409 54.5079 29.8403 54.7505C29.2397 54.9931 28.5778 55.0586 27.9385 54.9385C27.2993 54.8185 26.7114 54.5184 26.2495 54.0764C25.7876 53.6343 25.4725 53.0701 25.3439 52.4554C25.2154 51.8406 25.2794 51.203 25.5277 50.6232C25.7761 50.0435 26.1975 49.5479 26.7388 49.1991C27.28 48.8503 27.9166 48.6641 28.5679 48.6641C29.4367 48.664 30.2703 48.995 30.8865 49.5848C31.5027 50.1745 31.8515 50.975 31.8567 51.8115V51.8115Z" fill="#F56867"/>
<path d="M57.1165 51.8115C57.1204 52.4394 56.9303 53.0543 56.5704 53.5779C56.2106 54.1015 55.6972 54.5104 55.0954 54.7524C54.4937 54.9944 53.8309 55.0587 53.1911 54.9371C52.5513 54.8156 51.9634 54.5136 51.5023 54.0696C51.0411 53.6256 50.7276 53.0597 50.6013 52.4437C50.475 51.8276 50.5418 51.1894 50.7932 50.61C51.0446 50.0306 51.4692 49.5363 52.013 49.1898C52.5569 48.8433 53.1954 48.6603 53.8475 48.6641C54.7145 48.6641 55.546 48.9957 56.1591 49.586C56.7721 50.1762 57.1165 50.9768 57.1165 51.8115V51.8115Z" fill="#F56867"/>
<path d="M82.3957 51.8115C82.3996 52.4386 82.2102 53.0526 81.8512 53.5759C81.4922 54.0991 80.9799 54.5079 80.3793 54.7505C79.7788 54.9931 79.1169 55.0586 78.4776 54.9385C77.8384 54.8185 77.2505 54.5184 76.7886 54.0764C76.3267 53.6343 76.0115 53.0701 75.883 52.4554C75.7545 51.8406 75.8185 51.203 76.0668 50.6232C76.3151 50.0435 76.7366 49.5479 77.2778 49.1991C77.8191 48.8503 78.4557 48.6641 79.107 48.6641C79.9758 48.664 80.8093 48.995 81.4255 49.5848C82.0417 50.1745 82.3905 50.975 82.3957 51.8115V51.8115Z" fill="#F56867"/>
<path d="M132.937 51.8115C132.941 52.4386 132.751 53.0526 132.392 53.5759C132.033 54.0991 131.521 54.5079 130.92 54.7505C130.32 54.9931 129.658 55.0586 129.019 54.9385C128.379 54.8185 127.792 54.5184 127.33 54.0764C126.868 53.6343 126.553 53.0701 126.424 52.4554C126.296 51.8406 126.359 51.203 126.608 50.6232C126.856 50.0435 127.278 49.5479 127.819 49.1991C128.36 48.8503 128.997 48.6641 129.648 48.6641C130.517 48.664 131.35 48.995 131.967 49.5848C132.583 50.1745 132.932 50.975 132.937 51.8115V51.8115Z" fill="#F56867"/>
<path d="M107.577 51.8048C107.581 52.4319 107.392 53.046 107.033 53.5692C106.674 54.0925 106.162 54.5013 105.561 54.7439C104.96 54.9865 104.299 55.052 103.659 54.9319C103.02 54.8119 102.432 54.5118 101.97 54.0697C101.508 53.6277 101.193 53.0635 101.065 52.4487C100.936 51.8339 101 51.1962 101.248 50.6165C101.497 50.0367 101.918 49.5411 102.46 49.1922C103.001 48.8434 103.637 48.6572 104.289 48.6572C105.157 48.6572 105.991 48.9882 106.607 49.578C107.223 50.1677 107.572 50.9682 107.577 51.8048V51.8048Z" fill="#F56867"/>
<path d="M158.197 51.8115C158.2 52.4386 158.011 53.0526 157.652 53.5759C157.293 54.0991 156.781 54.5079 156.18 54.7505C155.58 54.9931 154.918 55.0586 154.278 54.9385C153.639 54.8185 153.051 54.5184 152.589 54.0764C152.127 53.6343 151.812 53.0701 151.684 52.4554C151.555 51.8406 151.619 51.203 151.868 50.6232C152.116 50.0435 152.537 49.5479 153.079 49.1991C153.62 48.8503 154.257 48.6641 154.908 48.6641C155.777 48.664 156.61 48.995 157.226 49.5848C157.843 50.1745 158.191 50.975 158.197 51.8115V51.8115Z" fill="#F56867"/>
<path d="M183.476 51.8115C183.48 52.4386 183.29 53.0526 182.931 53.5759C182.572 54.0991 182.06 54.5079 181.46 54.7505C180.859 54.9931 180.197 55.0586 179.558 54.9385C178.919 54.8185 178.331 54.5184 177.869 54.0764C177.407 53.6343 177.092 53.0701 176.963 52.4554C176.835 51.8406 176.899 51.203 177.147 50.6232C177.395 50.0435 177.817 49.5479 178.358 49.1991C178.899 48.8503 179.536 48.6641 180.187 48.6641C181.056 48.664 181.889 48.995 182.506 49.5848C183.122 50.1745 183.471 50.975 183.476 51.8115V51.8115Z" fill="#F56867"/>
<path d="M3.30834 79.3185C5.12465 79.3185 6.59702 77.9008 6.59702 76.152C6.59702 74.4032 5.12465 72.9855 3.30834 72.9855C1.49202 72.9855 0.0195312 74.4032 0.0195312 76.152C0.0195312 77.9008 1.49202 79.3185 3.30834 79.3185Z" fill="#F56867"/>
<path d="M28.5876 79.3185C30.404 79.3185 31.8763 77.9008 31.8763 76.152C31.8763 74.4032 30.404 72.9855 28.5876 72.9855C26.7713 72.9855 25.2988 74.4032 25.2988 76.152C25.2988 77.9008 26.7713 79.3185 28.5876 79.3185Z" fill="#F56867"/>
<path d="M57.1166 76.152C57.1166 76.7791 56.9231 77.3921 56.5609 77.9132C56.1986 78.4344 55.6839 78.8402 55.0818 79.0793C54.4797 79.3184 53.8175 79.38 53.179 79.2562C52.5405 79.1325 51.9545 78.829 51.4954 78.3843C51.0363 77.9395 50.7245 77.3735 50.5999 76.758C50.4752 76.1425 50.5432 75.5052 50.7951 74.927C51.0471 74.3487 51.4717 73.8555 52.0151 73.5099C52.5585 73.1643 53.1964 72.9818 53.8477 72.9855C54.7165 72.9906 55.5479 73.3264 56.1604 73.9197C56.7729 74.513 57.1167 75.3155 57.1166 76.152V76.152Z" fill="#F56867"/>
<path d="M79.1072 79.3185C80.9235 79.3185 82.3959 77.9008 82.3959 76.152C82.3959 74.4032 80.9235 72.9855 79.1072 72.9855C77.2908 72.9855 75.8184 74.4032 75.8184 76.152C75.8184 77.9008 77.2908 79.3185 79.1072 79.3185Z" fill="#F56867"/>
<path d="M107.657 76.1519C107.657 76.783 107.461 77.3995 107.094 77.9225C106.727 78.4454 106.206 78.8508 105.598 79.0868C104.99 79.3227 104.323 79.3784 103.682 79.2466C103.041 79.1149 102.456 78.8017 102.001 78.3474C101.546 77.893 101.243 77.3181 101.129 76.6965C101.016 76.0749 101.099 75.4349 101.366 74.8587C101.633 74.2825 102.073 73.7963 102.629 73.4625C103.186 73.1287 103.833 72.9625 104.488 72.9853C105.339 73.015 106.145 73.3617 106.737 73.9523C107.328 74.543 107.658 75.3315 107.657 76.1519V76.1519Z" fill="#F56867"/>
<path d="M129.648 79.3185C131.465 79.3185 132.937 77.9008 132.937 76.152C132.937 74.4032 131.465 72.9855 129.648 72.9855C127.832 72.9855 126.359 74.4032 126.359 76.152C126.359 77.9008 127.832 79.3185 129.648 79.3185Z" fill="#F56867"/>
<path d="M154.927 79.3185C156.744 79.3185 158.216 77.9008 158.216 76.152C158.216 74.4032 156.744 72.9855 154.927 72.9855C153.111 72.9855 151.639 74.4032 151.639 76.152C151.639 77.9008 153.111 79.3185 154.927 79.3185Z" fill="#F56867"/>
<path d="M183.476 76.152C183.476 76.7783 183.283 77.3905 182.922 77.9112C182.56 78.4319 182.047 78.8378 181.446 79.0774C180.845 79.3171 180.184 79.3798 179.546 79.2576C178.908 79.1355 178.322 78.8339 177.862 78.391C177.402 77.9482 177.089 77.384 176.962 76.7697C176.835 76.1555 176.9 75.5188 177.149 74.9402C177.398 74.3616 177.819 73.8671 178.36 73.5191C178.901 73.1712 179.537 72.9855 180.187 72.9855C181.059 72.9855 181.896 73.3191 182.513 73.9129C183.129 74.5068 183.476 75.3122 183.476 76.152V76.152Z" fill="#F56867"/>
<path d="M3.30834 103.659C5.12465 103.659 6.59702 102.241 6.59702 100.492C6.59702 98.7435 5.12465 97.3258 3.30834 97.3258C1.49202 97.3258 0.0195312 98.7435 0.0195312 100.492C0.0195312 102.241 1.49202 103.659 3.30834 103.659Z" fill="#F56867"/>
<path d="M28.5876 103.659C30.404 103.659 31.8763 102.241 31.8763 100.492C31.8763 98.7435 30.404 97.3258 28.5876 97.3258C26.7713 97.3258 25.2988 98.7435 25.2988 100.492C25.2988 102.241 26.7713 103.659 28.5876 103.659Z" fill="#F56867"/>
<path d="M57.1165 100.473C57.1204 101.101 56.9303 101.716 56.5704 102.24C56.2106 102.763 55.6972 103.172 55.0954 103.414C54.4937 103.656 53.8309 103.72 53.1911 103.599C52.5513 103.477 51.9634 103.175 51.5023 102.731C51.0411 102.287 50.7276 101.721 50.6013 101.105C50.475 100.489 50.5418 99.8511 50.7932 99.2718C51.0446 98.6924 51.4692 98.198 52.013 97.8516C52.5569 97.5051 53.1954 97.3221 53.8475 97.3259C54.2768 97.3259 54.7019 97.4073 55.0985 97.5654C55.4951 97.7236 55.8555 97.9554 56.1591 98.2477C56.4626 98.54 56.7034 98.887 56.8677 99.2688C57.0319 99.6507 57.1165 100.06 57.1165 100.473Z" fill="#F56867"/>
<path d="M79.1072 103.659C80.9235 103.659 82.3959 102.241 82.3959 100.492C82.3959 98.7435 80.9235 97.3258 79.1072 97.3258C77.2908 97.3258 75.8184 98.7435 75.8184 100.492C75.8184 102.241 77.2908 103.659 79.1072 103.659Z" fill="#F56867"/>
<path d="M107.657 100.473C107.661 101.105 107.468 101.724 107.104 102.249C106.739 102.774 106.22 103.183 105.612 103.422C105.005 103.661 104.337 103.719 103.694 103.589C103.052 103.46 102.465 103.148 102.008 102.695C101.551 102.241 101.246 101.666 101.131 101.044C101.016 100.422 101.097 99.7809 101.364 99.2036C101.631 98.6263 102.07 98.1389 102.627 97.8043C103.184 97.4697 103.832 97.3031 104.488 97.3259C105.337 97.3507 106.144 97.6932 106.735 98.2808C107.327 98.8684 107.658 99.6548 107.657 100.473Z" fill="#F56867"/>
<path d="M129.648 103.659C131.465 103.659 132.937 102.241 132.937 100.492C132.937 98.7435 131.465 97.3258 129.648 97.3258C127.832 97.3258 126.359 98.7435 126.359 100.492C126.359 102.241 127.832 103.659 129.648 103.659Z" fill="#F56867"/>
<path d="M154.927 103.659C156.744 103.659 158.216 102.241 158.216 100.492C158.216 98.7435 156.744 97.3258 154.927 97.3258C153.111 97.3258 151.639 98.7435 151.639 100.492C151.639 102.241 153.111 103.659 154.927 103.659Z" fill="#F56867"/>
<path d="M183.476 100.473C183.48 101.1 183.29 101.714 182.931 102.238C182.572 102.761 182.06 103.17 181.46 103.412C180.859 103.655 180.197 103.72 179.558 103.6C178.919 103.48 178.331 103.18 177.869 102.738C177.407 102.296 177.092 101.732 176.963 101.117C176.835 100.502 176.899 99.8647 177.147 99.285C177.395 98.7053 177.817 98.2096 178.358 97.8608C178.899 97.512 179.536 97.3258 180.187 97.3258C181.056 97.3258 181.889 97.6568 182.506 98.2465C183.122 98.8362 183.471 99.6367 183.476 100.473V100.473Z" fill="#F56867"/>
</svg>
